<svg xmlns="http://www.w3.org/2000/svg" viewBox="0 0 133.57 23.74"><defs><style>.cls-1{fill:#606161;}</style></defs><g id="Layer_2" data-name="Layer 2"><g id="Layer_1-2" data-name="Layer 1"><path class="cls-1" d="M31.57,10.39h0a3.15,3.15,0,0,1-.31.65c-.24.44-.39.66-.45.65a5.57,5.57,0,0,0-1.44-.19,10.55,10.55,0,0,0-3.31.94,12.43,12.43,0,0,1-2.78,1c-.46,0-.88-.38-1.25-1.12-.31.71-1.57,1.29-3.76,1.74a31.91,31.91,0,0,1-6.37.6A11.29,11.29,0,0,1,7.28,14c-.08.37-.2.59-.36.64a3.77,3.77,0,0,1-1.13-.21A4.2,4.2,0,0,1,4.69,14a4.05,4.05,0,0,1-1,1.49A6.8,6.8,0,0,1,2,16.33a7.38,7.38,0,0,1-1.87.59s-.08,0-.09,0,.11-.16.37-.34c1-.67,2.33-1.61,4-2.8A1.08,1.08,0,0,1,3.93,13a3.07,3.07,0,0,1,.44-1.38c.34-.6.68-.91,1-.91q.21,0,.72.54,1.76,1.93,6.55,1.93a32.77,32.77,0,0,0,5.24-.42,14.84,14.84,0,0,0,3.4-.87,2.09,2.09,0,0,0,.84-.59c.17-.17.27-.25.31-.24s.1.09.09.21-.05.29-.05.25a.49.49,0,0,0,.22.33,1.3,1.3,0,0,0,.89.28,6.83,6.83,0,0,0,2.85-1,8.36,8.36,0,0,0-3.15-.58c-.27,0-.54,0-.81,0,0,0,0,0,0,0a1.75,1.75,0,0,1,.34-.93,1.5,1.5,0,0,1,1.3-.72,5.46,5.46,0,0,1,1.19.38,20.66,20.66,0,0,0,2.25.74A16.79,16.79,0,0,0,31.57,10.39ZM6.11,18.6c.17,0,.15.12-.07.36a2.23,2.23,0,0,1-.57.51c-.44.2-1.19.56-2.26,1.08a12.16,12.16,0,0,0-1.14.62H2c-.15-.09.12-.44.81-1a10.61,10.61,0,0,1,1.64-.88A7.34,7.34,0,0,1,6.11,18.6Zm.13-5.81A2.85,2.85,0,0,1,5.69,12c-.17-.31-.29-.47-.35-.47a.58.58,0,0,0-.31.24.67.67,0,0,0-.18.33C4.85,12.37,5.31,12.6,6.24,12.79ZM52.69,10.2s-.28.37-.91,1.12a10,10,0,0,0-3.12-.57,11,11,0,0,0-2.13.25,8.82,8.82,0,0,0-1.59.42,1.7,1.7,0,0,1,.7,1.29,2.55,2.55,0,0,1-.27,1c-.19.47-.42.71-.69.71a2.86,2.86,0,0,1-2.3-1.11,2,2,0,0,1-1.84,1.28h-.27q-.42,3.66-5.76,5.92a32.69,32.69,0,0,1-12.76,2.58,27.78,27.78,0,0,1-7.42-1A15.54,15.54,0,0,1,9.54,20a9.5,9.5,0,0,1-2.09-2.41,5.82,5.82,0,0,1-1.06-2,.07.07,0,0,1,0-.05s.25.14.59.49c.51.52,1,.95,1.41,1.31A14.66,14.66,0,0,0,10.76,19,23.5,23.5,0,0,0,22,21.54a31.88,31.88,0,0,0,11.44-1.93q6.21-2.37,6.21-4.53a2.49,2.49,0,0,0-.57-1.47q-.21-.25.06-.93t.36-.6a3.28,3.28,0,0,1,.36.53,1.76,1.76,0,0,0,.37.49,1,1,0,0,0,.54.11A2.12,2.12,0,0,0,42,12.89a5.72,5.72,0,0,0,.6-.82,4.12,4.12,0,0,1,.68-.92c.64-.61,2-1.05,4-1.31-.59-.24-1-.4-1.39-.5a6.6,6.6,0,0,0-1.1-.07c-.36,0-.76,0-1.22.05,0-.14.06-.27.1-.4a1.7,1.7,0,0,1,1.69-1.16,3.1,3.1,0,0,1,1.44.41q1.49.78,2,1A25.64,25.64,0,0,0,52.69,10.2ZM11.31,2.49a1.78,1.78,0,0,1-.51.94,3.25,3.25,0,0,1-.84.75,4.25,4.25,0,0,1-1.49.21c-.22,0-.34,0-.34-.07s.23-.16.74-.32a5.29,5.29,0,0,0,1.37-.58,3.82,3.82,0,0,0-.77-.17,7.54,7.54,0,0,0-.83-.08.52.52,0,0,0-.3.15.8.8,0,0,1-.21.15s-.05,0-.05-.07a1.91,1.91,0,0,1,.44-.71c.35-.42.64-.64.86-.64a8.91,8.91,0,0,1,1,.1C11,2.25,11.31,2.36,11.31,2.49ZM31.94.17c-.3.34-.66.72-1.06,1.14Q25.39,2.53,20.44,3.72A64.77,64.77,0,0,0,12.56,6a8.63,8.63,0,0,0-1.75.86c-.3.19-.45.29-.43.3s-.05,0-.05,0a1.44,1.44,0,0,1,.47-.81,4.38,4.38,0,0,1,1.49-1.11,60.44,60.44,0,0,1,9.17-2.74Q28.2.8,31.94.17ZM16.55,15.91a2,2,0,0,1-.22.72c-.18.41-.3.63-.36.64s-.58-.14-1.33-.56c-.26.67-.42,1-.5,1a3.09,3.09,0,0,1-.75-.29,2.36,2.36,0,0,1-.64-.36,2.17,2.17,0,0,1,.18-.73c.14-.42.24-.63.3-.65a1.86,1.86,0,0,1,.59.19l.82.36a7.13,7.13,0,0,1,.49-1,2.24,2.24,0,0,1,.74.28A2.81,2.81,0,0,1,16.55,15.91ZM15.26,9.37a1.65,1.65,0,0,1-.16.75.68.68,0,0,1-.6.41.74.74,0,0,1-.67-.45,1.58,1.58,0,0,1-.21-.81,4.18,4.18,0,0,1,.1-.81c.07-.38.14-.56.23-.56S14,8,14,8.1s0,.15,0,.26V8.6c0,.63.2.94.6.94.2,0,.33-.13.4-.39s0-.29.08-.43S15.26,8.89,15.26,9.37Zm6.53,8.23c0,.67-.06,1-.18,1s-.07-.15-.09-.45a4.28,4.28,0,0,0-1.12-2.57.11.11,0,0,1,0-.05,2,2,0,0,1,.13-.47c.09-.25.14-.37.16-.35A4.26,4.26,0,0,1,21.79,17.6Zm11.6-5.23A3.49,3.49,0,0,1,33.1,14a1.57,1.57,0,0,1-1.36.76,4.44,4.44,0,0,1-1,2.76,3.13,3.13,0,0,1-2.45,1.58A2.32,2.32,0,0,1,26,17.49a3.23,3.23,0,0,1-.28-1.35c0-.52.07-.78.2-.78s.09.21.13.63a2.4,2.4,0,0,0,.28,1.08,1.57,1.57,0,0,0,1.46.68,3.68,3.68,0,0,0,2.27-1c.77-.63,1.15-1.18,1.15-1.67,0-.28-.21-.59-.62-.92-.18-.18-.21-.5-.08-1s.28-.62.48-.48a4.11,4.11,0,0,0,.53.45,1.5,1.5,0,0,0,.76,0c.4-.06.6-.2.6-.4A31.31,31.31,0,0,0,32.3,9l-.68-3.6a17.59,17.59,0,0,0-.05,2.09l.05,2c0,.38,0,.56-.05.56S31.38,9.71,31.3,9a23.27,23.27,0,0,1-.16-2.8,12.84,12.84,0,0,1,.12-1.58c.1-.87.24-1.34.41-1.41s.46,1.32,1,4.11A42,42,0,0,1,33.39,12.37ZM29.44,6c0,.66-.25,1-.73,1a.55.55,0,0,1-.48-.23.92.92,0,0,1-.88.52.6.6,0,0,1-.65-.61,1.71,1.71,0,0,1,0-.74c.17-.45.3-.65.37-.61s0,.07,0,.14a1.47,1.47,0,0,1,0,.31.84.84,0,0,0,0,.34c.05.27.18.37.38.32s.46-.14.52-.34c0,0,0-.22.07-.56s.07-.34.15-.36.11.1.14.3V5.6a2.72,2.72,0,0,1,0,.35.3.3,0,0,0,.26.16c.27,0,.41-.16.41-.46a1.23,1.23,0,0,0,0-.29,1.8,1.8,0,0,1,0-.27c0-.11,0-.16.09-.17s.22.18.31.63A4.07,4.07,0,0,1,29.44,6Zm8-5.56a1.67,1.67,0,0,1-.61,1.31,2.07,2.07,0,0,1-1.41.52,1.57,1.57,0,0,1-.64-.15A1.36,1.36,0,0,0,34.32,2c-.13,0-.28.1-.45.31s-.26.31-.29.31-.09,0-.09-.1a1.31,1.31,0,0,1,.37-.76,1,1,0,0,1,.77-.53.94.94,0,0,1,.34.14.9.9,0,0,0,.42.14c.48-1,1-1.46,1.66-1.46A.37.37,0,0,1,37.46.46ZM36.41,11.92a13.29,13.29,0,0,1,0,2.7c0,.13-.08.19-.13.19s-.12-.08-.16-.24c-.13-1.49-.28-2.67-.44-3.56s-.58-2.85-1.07-5.43a7.92,7.92,0,0,1,.12-1.3,6.13,6.13,0,0,1,.2-1.11c.08,0,.16.21.23.63s.28,1.53.57,3A34.24,34.24,0,0,1,36.41,11.92ZM37,1c0-.22-.11-.33-.34-.33s-.62.31-.95.92a2.27,2.27,0,0,0,.75-.13C36.82,1.32,37,1.17,37,1Zm2.47,7.79a3.35,3.35,0,0,1-.26.75c-.17.41-.28.61-.35.61a2,2,0,0,1-.69-.33q-.54-.33-.54-.48a3.08,3.08,0,0,1,.2-.72c.13-.37.23-.56.29-.56a2.71,2.71,0,0,1,.74.34C39.27,8.6,39.47,8.73,39.47,8.77ZM43,18.48c.16,0,.14.13-.06.37a4.27,4.27,0,0,1-.57.54c-.45.19-1.2.56-2.26,1.08l-1.18.6c-.05-.05,0-.2.25-.46a5.51,5.51,0,0,1,.58-.6,9,9,0,0,1,1.61-.88A7,7,0,0,1,43,18.48ZM40.3,5.58c0,.67-.07,1-.22,1S40,6.45,40,6.16a4.66,4.66,0,0,0-.21-1.11,3.8,3.8,0,0,0-.89-1.47,6.17,6.17,0,0,1,.31-.86A4.2,4.2,0,0,1,40.3,5.58Zm4.77-2.93a1.76,1.76,0,0,1-.54,1,2.5,2.5,0,0,1-.84.72,4,4,0,0,1-1.51.23c-.19,0-.3,0-.31-.06s.24-.16.75-.32A5.88,5.88,0,0,0,44,3.58a2.65,2.65,0,0,0-.74-.16,8.14,8.14,0,0,0-.82-.08.58.58,0,0,0-.32.14l-.19.14h0s0,0,0,0a2,2,0,0,1,.46-.71c.35-.43.64-.64.86-.64a7.75,7.75,0,0,1,1,.11C44.76,2.42,45.07,2.52,45.07,2.65ZM44.87,13c0-.29-.24-.56-.74-.83A1.33,1.33,0,0,0,43.6,12c-.19,0-.3,0-.34.06s0,.23.14.39a1.4,1.4,0,0,0,.38.3,2,2,0,0,0,1,.31Q44.87,13.08,44.87,13Zm9.85.91a3.14,3.14,0,0,1-.41,1.64,1.5,1.5,0,0,1-1.38.83,4.83,4.83,0,0,1-1.57,2.75,3.1,3.1,0,0,1-1.93,1.07,5.64,5.64,0,0,1-1.55-.37,6.47,6.47,0,0,1-1-.42c-.42-.22-.63-.38-.63-.49s0-.08.14-.08a6.44,6.44,0,0,1,.88.09,6.66,6.66,0,0,0,.9.09,4.73,4.73,0,0,0,3.41-1.48q.72-.72.72-1.05a1.07,1.07,0,0,0-.57-.9c.13-.49.27-1,.44-1.44a5.45,5.45,0,0,0,.59.58.73.73,0,0,0,.34,0c.73,0,1.09-.21,1.09-.63s-.25-2-.75-4.67l-.78-4.19a1.12,1.12,0,0,1-.22-.69,4,4,0,0,1,.17-.88c.13-.45.24-.68.33-.68s.07.11.09.31a1.24,1.24,0,0,0,.5,1c.11.08.17.13.17.16a9.47,9.47,0,0,1-.3,1s.22,1.3.66,3.8A33.83,33.83,0,0,1,54.72,13.9ZM52.18.87q0,.16-.39.6A3,3,0,0,1,51.2,2l-3,1.32a13,13,0,0,0-1.9,1s0,0,0,0a1.22,1.22,0,0,1,.3-.54,2.22,2.22,0,0,1,.46-.51,21.14,21.14,0,0,1,2.68-1.32c1.56-.72,2.36-1.07,2.4-1.06A0,0,0,0,1,52.18.87Zm-1,4.9c0,.67-.25,1-.73,1a.64.64,0,0,1-.5-.23.87.87,0,0,1-.71.51.67.67,0,0,1-.54-.11.81.81,0,0,1-.28-.49,2.2,2.2,0,0,1,0-.74c.16-.41.27-.61.33-.61h0s.06.06.06.13a1.48,1.48,0,0,1-.06.32,1.35,1.35,0,0,0,0,.32c.06.27.18.38.39.33s.45-.15.51-.36c0,0,0-.22.09-.55S49.82,5,49.9,5s.1.09.14.3a1.45,1.45,0,0,0,.09.46.23.23,0,0,0,.24.15c.26,0,.39-.15.39-.47a1.78,1.78,0,0,0,0-.28,1.78,1.78,0,0,1,0-.28c0-.09,0-.14.1-.15s.22.18.3.62A2.79,2.79,0,0,1,51.15,5.77ZM58.9.43a1.72,1.72,0,0,1-.64,1.33,2,2,0,0,1-1.39.51,1.55,1.55,0,0,1-.61-.15A1.32,1.32,0,0,0,55.77,2c-.12,0-.28.11-.45.32a1.84,1.84,0,0,1-.31.31c-.06,0-.09,0-.09-.1a1.42,1.42,0,0,1,.37-.77c.27-.35.52-.52.75-.52a.92.92,0,0,1,.39.13,1.4,1.4,0,0,0,.38.14c.47-1,1-1.47,1.69-1.47C58.77,0,58.9.14,58.9.43Zm-1.46,12a12.08,12.08,0,0,1-.11,2.74c0,.12,0,.17-.14.17s-.12-.08-.13-.24c-.12-1.56-.25-2.74-.39-3.56q-.31-1.74-1.05-6a6.75,6.75,0,0,1,.14-1.3A5,5,0,0,1,56,3.1c.07,0,.13.21.19.65,0,.2.2,1.18.52,2.94A42.69,42.69,0,0,1,57.44,12.4ZM58.44,1A.32.32,0,0,0,58.09.6c-.31,0-.63.31-.94.93a1.64,1.64,0,0,0,.75-.11C58.26,1.3,58.44,1.14,58.44,1Zm3.21,16.36c.16,0,.14.13-.06.37a3.63,3.63,0,0,1-.56.55c-.65.3-1.42.66-2.3,1.09-.15.07-.39.21-.71.4a1.6,1.6,0,0,1-.41.21l0,0c0-.05,0-.2.23-.45a4.78,4.78,0,0,1,.6-.58A9,9,0,0,1,60,18,7.39,7.39,0,0,1,61.65,17.32Zm.23-9c0,.44-.1.65-.31.65a1.19,1.19,0,0,1-.35-.1,1.1,1.1,0,0,0-.39-.1A5.09,5.09,0,0,1,59.74,10a10.1,10.1,0,0,1-1,.65,2.61,2.61,0,0,1-.94.38c-.06,0-.1,0-.1,0s.14-.25.51-.51.61-.39,1.07-.71a4.55,4.55,0,0,0,1.09-1c-.42-.07-.63-.28-.63-.65a2.14,2.14,0,0,1,.11-.74.51.51,0,0,1-.22-.48q0-.39.3-.39a2,2,0,0,1,1.35.58A1.7,1.7,0,0,1,61.88,8.36Zm7.46,5.91a3.36,3.36,0,0,1-.17,1.23,1.08,1.08,0,0,1-1,.8,1.75,1.75,0,0,1-.77-.21,1.44,1.44,0,0,1-.6-.49,3.09,3.09,0,0,1-.32-.79,2.56,2.56,0,0,0-.11-.39,1.33,1.33,0,0,0-.18.43,3.08,3.08,0,0,1-.47,1,1.89,1.89,0,0,1-1.53.77,1.64,1.64,0,0,1-1.4-.69,2.33,2.33,0,0,1-.36-1.31.87.87,0,0,0-.27.33,2.76,2.76,0,0,1-.23.38,1.65,1.65,0,0,1-1.39.46,1.68,1.68,0,0,1-.79-.17A.46.46,0,0,1,59.5,15a2.69,2.69,0,0,1,.6-1,5.34,5.34,0,0,1,1.53-1,3.24,3.24,0,0,0,.81-.43A2,2,0,0,1,62.5,12c.1-.43.2-.64.3-.64s.06.26.06.77c0,.93,0,1.53,0,1.79A1.16,1.16,0,0,0,64.2,15a2.09,2.09,0,0,0,1.22-.34,1.28,1.28,0,0,0,.55-1.1,12.77,12.77,0,0,0-.5-2.47,4.33,4.33,0,0,1-.14-.68,2.41,2.41,0,0,1,.35-1.17q.1,0,.24.6c.11.5.29,1.25.52,2.25a7,7,0,0,0,.73,2.09,1.42,1.42,0,0,0,1.19.56h.24c.21,0,.32-.06.32-.19a12.48,12.48,0,0,0-.78-2.17,9.59,9.59,0,0,1-.78-2.34,7.16,7.16,0,0,1,.12-.87.88.88,0,0,1,0-.24s.1.05.14.15L69.17,13A3.56,3.56,0,0,1,69.34,14.27ZM60.63,7.84c0-.21-.09-.32-.27-.32s-.29.14-.29.42.17.21.51.21A1.24,1.24,0,0,0,60.63,7.84ZM62.39,13a7,7,0,0,0-1.94,1.17c0,.06.15.1.44.12a2.67,2.67,0,0,0,1.47-.27Q62.36,13.3,62.39,13ZM61.6,8.29a.08.08,0,0,0,0,0c0-.07-.07-.18-.21-.35A1,1,0,0,0,61,7.6a.55.55,0,0,1,0,.25,1.63,1.63,0,0,1,0,.35,1.91,1.91,0,0,0,.51.12C61.57,8.32,61.6,8.31,61.6,8.29Zm5-1.07c0,.57-.24.86-.74.86a.49.49,0,0,1-.39-.14,1,1,0,0,1-.69.49c-.43,0-.67-.16-.73-.62a1.49,1.49,0,0,1,.12-.67c.13-.37.24-.56.31-.56h0a.1.1,0,0,1,.07.1,1.22,1.22,0,0,1-.07.3.93.93,0,0,0-.07.31c0,.23.15.34.34.34a.64.64,0,0,0,.51-.34,2.08,2.08,0,0,0,.08-.49c0-.21.07-.32.12-.33s.11.09.11.26a1.34,1.34,0,0,0,.06.4.24.24,0,0,0,.27.09.43.43,0,0,0,.28-.12,1.15,1.15,0,0,0,0-.47q0-.33.09-.33c.11,0,.19.2.25.59A1.73,1.73,0,0,1,66.58,7.22Zm-.86-2.34q0,1-.21,1s-.07-.14-.09-.42A4.14,4.14,0,0,0,64.3,2.89,7.26,7.26,0,0,1,64.61,2,4.2,4.2,0,0,1,65.72,4.88Zm67.85,9.42a2.23,2.23,0,0,1-.42,1.41c-.21.28-.4.42-.58.42a2.56,2.56,0,0,1-1-.42,5.42,5.42,0,0,1-.87-.57c-.3.94-.61,1.41-.91,1.41a2.4,2.4,0,0,1-1.51-.55,2.11,2.11,0,0,1-1.67.79c-.95,0-1.43-.13-1.43-.38a1.13,1.13,0,0,1,.07-.33q-1.74.84-7.35,1.47c-2.37.28-5.48.53-9.33.77q-6,.38-9.53.38-3,0-7.8-.2-5.36-.24-8.75-.56a60.41,60.41,0,0,1-7.67-1.13c-.13.38-.23.57-.31.57a6,6,0,0,1-2.24-.62,4.31,4.31,0,0,1-1,1.48,7.48,7.48,0,0,1-1.78.88,6.93,6.93,0,0,1-1.87.59.05.05,0,0,1-.06,0s.09-.14.35-.31q1.41-1,4-2.81a1.11,1.11,0,0,1-.45-.78A2.9,2.9,0,0,1,72,14.41c.34-.61.68-.92,1-.94.16,0,.41.18.74.55a7.13,7.13,0,0,0,3.93,1.79c.73.15,2.24.34,4.55.56q8,.79,16.89.8,4.28,0,9.89-.3,5.2-.29,8.58-.65,7-.76,8-1.38a1.7,1.7,0,0,0,.53-.45c.12-.14.21-.21.26-.2s.08.05.08.13a1.15,1.15,0,0,1-.13.47.83.83,0,0,1-.28.39c0,.09.35.13.92.13a1.73,1.73,0,0,0,1.11-.31,2.25,2.25,0,0,0,.57-.72c.16-.25.28-.36.36-.35a.22.22,0,0,1,.06.17c0,.08-.08.31-.2.71a1.84,1.84,0,0,0,1.12.33c.12,0,.28-.23.47-.69s.33-.69.41-.67.14.22.08.6a1.8,1.8,0,0,0,.76.34,2.78,2.78,0,0,0,.86.16q.48,0,.48-.33a7.22,7.22,0,0,0-.92-2.27,18.57,18.57,0,0,0-1.28-2.22c0,.63,0,.94-.16.94s-.09-.22-.16-.65a5.9,5.9,0,0,1-.1-1c0-.77.08-1.16.26-1.16s.71.79,1.53,2.36A9.35,9.35,0,0,1,133.57,14.3ZM72.94.52a1.69,1.69,0,0,1-.61,1.33,2.08,2.08,0,0,1-1.4.53,1.44,1.44,0,0,1-.64-.16,1.4,1.4,0,0,0-.49-.17c-.13,0-.28.1-.45.31s-.27.3-.31.3-.06,0-.06-.08a1.38,1.38,0,0,1,.36-.76,1.05,1.05,0,0,1,.76-.51.92.92,0,0,1,.36.12,1,1,0,0,0,.41.14c.46-1,1-1.48,1.67-1.48a.4.4,0,0,1,.28.14A.44.44,0,0,1,72.94.52ZM73.12,20a2.37,2.37,0,0,1-.37.43c-.45.21-1.22.57-2.28,1.09l-1.12.61h0c0-.06,0-.21.25-.46a5,5,0,0,1,.58-.61,10.35,10.35,0,0,1,1.63-.87,7.3,7.3,0,0,1,1.62-.66A1.17,1.17,0,0,1,73.12,20Zm-1.05-7.74q0,1.77-.27,1.77s-.11-.27-.19-.81l-.22-1.6c-.1-.61-.36-1.79-.76-3.55L70,5.52c0-1.31.09-2,.28-2A7.21,7.21,0,0,1,70.68,5c.17.76.42,1.92.76,3.47A24.62,24.62,0,0,1,72.07,12.25Zm.4-11.2c0-.23-.1-.35-.32-.35s-.62.31-1,.92A1.84,1.84,0,0,0,72,1.5C72.3,1.38,72.47,1.22,72.47,1.05Zm1.35,14.53a3.38,3.38,0,0,1-.56-.81c-.17-.3-.28-.45-.34-.45s-.18.07-.31.21a.67.67,0,0,0-.19.35C72.42,15.15,72.89,15.38,73.82,15.58ZM127.17,6a1.73,1.73,0,0,1-.51,1,2.46,2.46,0,0,1-.82.73,3.36,3.36,0,0,1-1,.2c-.51,0-.77,0-.78,0s.23-.17.74-.33a5.14,5.14,0,0,0,1.35-.61,3.68,3.68,0,0,0-1.55-.22A1.1,1.1,0,0,0,124,7s0,0,0,0l0,0a1.94,1.94,0,0,1,.46-.72q.51-.63.84-.63a7.09,7.09,0,0,1,1,.1C126.87,5.8,127.17,5.91,127.17,6Zm.72,5.27a1.67,1.67,0,0,1-.19.78.7.7,0,0,1-.63.42.62.62,0,0,1-.52-.33,1.08,1.08,0,0,1-.19-.62,3,3,0,0,1,.25-1c.17-.47.31-.67.42-.61a.08.08,0,0,1,.06.09,1.74,1.74,0,0,1-.13.49,2,2,0,0,0-.12.58q0,.48.39.48a.42.42,0,0,0,.39-.3c.09-.2.14-.3.17-.3S127.89,11.08,127.89,11.29ZM133,20.68c0,.09-.14.29-.41.6a2.7,2.7,0,0,1-.56.53l-2.08,1q-2,1-2,1s0,0,0,0a1.4,1.4,0,0,1,.33-.58,3.76,3.76,0,0,1,.46-.52,18.32,18.32,0,0,1,2.2-1.09,16.24,16.24,0,0,1,2-.87S133,20.66,133,20.68Zm-1.11-2.34a3,3,0,0,1-.27.8c-.19.42-.31.63-.38.63a2.76,2.76,0,0,1-.74-.35,2.6,2.6,0,0,1-.61-.41,2.65,2.65,0,0,1,.28-.76c.2-.39.31-.59.36-.59a2.84,2.84,0,0,1,.74.31A2.91,2.91,0,0,1,131.93,18.34Z"/></g></g></svg>